<svg viewBox="166.07499999999993 173.43820224719093 689.85 624.8876404494384" fill="none" xmlns="http://www.w3.org/2000/svg" xmlns:xlink="http://www.w3.org/1999/xlink" overflow="visible" width="689.85px" height="624.8876404494384px"><g id="Master/Scenes/Remote Life"><g id="Background" transform="translate(271 173) scale(1 1)"><g id="Background/1"><path id="Fill 3" fill-rule="evenodd" clip-rule="evenodd" d="M401.585 21.6223C324.481 -31.5289 222.87 16.9322 174.633 129.863L174.597 129.947C172.327 135.265 168.47 139.362 163.384 141.797C138.795 153.569 115.027 169.313 93.1804 188.984C-8.18827 280.257 -29.8672 421.435 44.7573 504.314C119.382 587.193 262.052 580.389 363.421 489.117C415.428 442.289 446.46 382.325 454.271 323.837C454.585 321.484 455.157 319.254 455.993 317.194C501.368 205.349 477.522 73.9681 401.585 21.6223" fill="black" fill-opacity="0.04"/></g></g><g id="Group 96"><path id="Stroke 3" d="M431.708 585.84C432.762 585.84 433.626 586.656 433.702 587.691L433.708 587.84V601.537C433.708 602.642 432.812 603.537 431.708 603.537C430.653 603.537 429.789 602.721 429.713 601.686L429.708 601.537V587.84C429.708 586.736 430.603 585.84 431.708 585.84Z" fill="black"/><path id="Fill 4" fill-rule="evenodd" clip-rule="evenodd" d="M346.851 637.734H612.119V600.16H346.851V637.734Z" fill="black"/><path id="Fill 5" fill-rule="evenodd" clip-rule="evenodd" d="M577.148 405.334H736.211V367.759H577.148V405.334Z" fill="black"/><g id="Group 95"><path id="Stroke 6" d="M679.539 320.53C680.3 320.53 680.94 321.1 681.029 321.855C681.792 328.367 681.625 335.138 680.155 342.202C677.354 355.663 670.906 366.079 662.732 374.446C662.153 375.039 661.203 375.05 660.611 374.471C660.018 373.892 660.007 372.942 660.586 372.35C668.394 364.357 674.55 354.413 677.218 341.59C678.506 335.402 678.743 329.447 678.206 323.699L678.189 323.53H604.408L604.392 323.698C603.877 329.191 604.072 334.882 605.217 340.784L605.379 341.59C608.048 354.413 614.203 364.357 622.012 372.35C622.591 372.942 622.58 373.892 621.987 374.471C621.394 375.05 620.445 375.039 619.866 374.446C611.691 366.079 605.244 355.663 602.442 342.202C600.972 335.135 600.805 328.359 601.57 321.855C601.653 321.147 602.221 320.602 602.919 320.537L603.06 320.53H679.539Z" fill="black"/><path id="Stroke 8" d="M594.896 270.092C597.069 267.317 600.219 267.733 603.236 269.986C613.736 277.829 621.706 291.408 627.812 308.762C629.251 312.866 630.538 317.171 631.652 321.674C631.851 322.479 631.361 323.292 630.557 323.491C629.753 323.69 628.939 323.199 628.74 322.395C627.648 317.984 626.389 313.769 624.981 309.756C619.056 292.916 611.356 279.796 601.441 272.39C599.559 270.984 598.153 270.799 597.259 271.94C596.788 272.544 596.494 273.366 596.246 274.659C595.333 279.426 595.803 284.679 597.455 290.254C599.298 296.47 602.127 302.621 606.556 310.634C608.512 314.171 610.555 317.634 612.848 321.228C613.293 321.927 613.088 322.854 612.39 323.299C611.692 323.745 610.764 323.54 610.319 322.842C607.99 319.191 605.915 315.675 603.93 312.085L603.101 310.572C599.046 303.107 596.376 297.168 594.579 291.106C592.8 285.103 592.288 279.379 593.299 274.094C593.63 272.373 594.065 271.156 594.896 270.092Z" fill="black"/><path id="Stroke 10" d="M631.529 258.655C633.952 255.329 636.764 253.76 639.83 254.993C643.181 256.339 644.923 259.744 645.745 264.746C645.919 265.804 646.048 266.91 646.153 268.153L646.2 268.737L646.36 271.071C647.374 286.028 646.958 301.008 645.346 322.149C645.283 322.975 644.562 323.593 643.736 323.53C642.91 323.467 642.291 322.747 642.354 321.921L642.597 318.654C643.97 299.706 644.304 285.802 643.418 272.052L643.276 269.897C643.238 269.336 643.203 268.867 643.164 268.406C643.065 267.236 642.945 266.205 642.785 265.232C642.117 261.167 640.814 258.621 638.712 257.776C635.959 256.67 632.624 261.246 630.501 267.272C628.078 274.152 627.076 281.804 627.082 291.161L627.092 292.724C627.133 296.36 627.289 299.717 627.647 305.357L627.894 309.16C627.948 309.987 627.321 310.7 626.495 310.754C625.668 310.808 624.954 310.182 624.9 309.355L624.553 303.947C624.241 298.851 624.111 295.663 624.086 292.038C624.014 281.972 625.044 273.738 627.671 266.275C628.593 263.658 629.948 260.823 631.529 258.655Z" fill="black"/><path id="Stroke 12" d="M675.171 296.075C677.77 295.761 679.861 296.737 680.774 299.207C681.235 300.443 681.265 301.733 681.027 303.401C680.634 306.051 679.818 308.688 678.511 311.875C676.914 315.756 675.024 319.435 672.862 322.839C672.418 323.538 671.491 323.745 670.791 323.301C670.092 322.856 669.885 321.929 670.329 321.23C672.396 317.978 674.205 314.455 675.736 310.735C676.959 307.754 677.708 305.333 678.059 302.968C678.231 301.762 678.211 300.92 677.962 300.252C677.583 299.227 676.865 298.892 675.531 299.053C674.286 299.204 672.752 299.813 671.299 300.64C668.414 302.289 665.769 304.331 663.484 306.68C662.906 307.273 661.956 307.286 661.362 306.708C660.769 306.131 660.756 305.181 661.334 304.587C663.815 302.037 666.683 299.823 669.813 298.034C671.584 297.026 673.457 296.283 675.171 296.075Z" fill="black"/><path id="Stroke 14" d="M659.764 271.123C662.063 269.418 664.375 269.015 666.342 270.645C668.041 272.051 668.503 273.984 668.712 277.504C669.226 286.109 667.569 294.73 663.83 306.111C663.329 307.606 662.827 309.079 662.323 310.528L659.591 318.257L659.502 318.489C659.217 319.267 658.355 319.666 657.578 319.381C656.8 319.096 656.401 318.234 656.686 317.456L656.811 317.124L658.99 310.972C659.657 309.077 660.322 307.138 660.983 305.166C664.611 294.122 666.204 285.833 665.718 277.682C665.561 275.046 665.218 273.608 664.429 272.956C663.758 272.4 662.87 272.555 661.551 273.532C660.432 274.363 659.451 275.428 658.091 277.122C656.257 279.398 654.696 281.981 652.902 285.542L652.617 286.112C650.512 290.34 648.544 294.872 646.473 300.159C646.171 300.93 645.3 301.311 644.529 301.009C643.758 300.706 643.377 299.836 643.679 299.065C645.781 293.701 647.783 289.091 649.931 284.777C651.934 280.742 653.662 277.837 655.753 275.242C657.268 273.355 658.375 272.154 659.764 271.123Z" fill="black"/><path id="Stroke 16" d="M610.993 334.526C611.389 334.312 611.856 334.288 612.268 334.455L612.419 334.526L619.11 338.14L625.797 334.526C626.193 334.312 626.66 334.288 627.072 334.455L627.223 334.526L633.911 338.139L640.598 334.526C640.994 334.312 641.462 334.288 641.873 334.455L642.025 334.526L648.708 338.139L655.393 334.526C655.789 334.312 656.257 334.288 656.668 334.455L656.82 334.526L663.501 338.139L670.184 334.526C670.579 334.312 671.047 334.288 671.459 334.455L671.611 334.526L679.009 338.526C679.737 338.92 680.009 339.83 679.615 340.559C679.244 341.245 678.416 341.525 677.712 341.228L677.582 341.165L670.897 337.55L664.216 341.165C663.82 341.379 663.352 341.403 662.94 341.236L662.789 341.165L656.105 337.55L649.422 341.165C649.026 341.379 648.558 341.403 648.146 341.236L647.995 341.165L641.31 337.55L634.626 341.165C634.23 341.379 633.762 341.403 633.351 341.236L633.199 341.165L626.51 337.549L619.824 341.165C619.428 341.379 618.96 341.403 618.549 341.236L618.397 341.165L611.706 337.55L605.015 341.165C604.329 341.536 603.483 341.317 603.057 340.682L602.983 340.558C602.612 339.872 602.831 339.026 603.465 338.6L603.589 338.526L610.993 334.526Z" fill="black"/><path id="Stroke 18" d="M614.018 348.291C614.451 348.03 614.983 348.006 615.434 348.22L615.567 348.291L621.427 351.823L627.284 348.291C627.717 348.03 628.25 348.006 628.701 348.22L628.834 348.291L634.684 351.822L640.539 348.291C640.972 348.03 641.505 348.006 641.956 348.22L642.089 348.291L647.94 351.823L653.794 348.291C654.227 348.03 654.76 348.006 655.211 348.22L655.344 348.291L661.195 351.823L667.045 348.291C667.479 348.03 668.012 348.006 668.464 348.22L668.596 348.292L675.217 352.292C675.926 352.72 676.154 353.642 675.726 354.351C675.322 355.018 674.482 355.259 673.793 354.928L673.666 354.859L667.82 351.327L661.971 354.86C661.538 355.121 661.005 355.145 660.553 354.931L660.421 354.86L654.568 351.327L648.716 354.86C648.282 355.121 647.75 355.145 647.298 354.931L647.166 354.86L641.313 351.327L635.46 354.86C635.026 355.121 634.494 355.145 634.042 354.931L633.91 354.86L628.058 351.327L622.203 354.86C621.769 355.121 621.237 355.145 620.786 354.931L620.653 354.86L614.792 351.326L608.931 354.86C608.263 355.263 607.407 355.084 606.953 354.47L606.872 354.35C606.47 353.682 606.648 352.826 607.262 352.371L607.382 352.291L614.018 348.291Z" fill="black"/><path id="Fill 20" fill-rule="evenodd" clip-rule="evenodd" d="M310.687 323.755C310.687 338.114 299.046 349.755 284.687 349.755C270.328 349.755 258.687 338.114 258.687 323.755C258.687 309.396 270.328 297.755 284.687 297.755C299.046 297.755 310.687 309.396 310.687 323.755" fill="black"/><path id="Fill 22" fill-rule="evenodd" clip-rule="evenodd" d="M236.76 284.599C236.76 291.849 230.883 297.727 223.632 297.727C216.382 297.727 210.504 291.849 210.504 284.599C210.504 277.349 216.382 271.471 223.632 271.471C230.883 271.471 236.76 277.349 236.76 284.599" fill="black"/><path id="Fill 24" fill-rule="evenodd" clip-rule="evenodd" d="M360.712 271.336C360.712 278.586 354.834 284.464 347.584 284.464C340.333 284.464 334.455 278.586 334.455 271.336C334.455 264.086 340.333 258.208 347.584 258.208C354.834 258.208 360.712 264.086 360.712 271.336" fill="black"/><path id="Fill 26" fill-rule="evenodd" clip-rule="evenodd" d="M258.659 400.419C258.659 407.669 252.781 413.547 245.531 413.547C238.28 413.547 232.403 407.669 232.403 400.419C232.403 393.169 238.28 387.291 245.531 387.291C252.781 387.291 258.659 393.169 258.659 400.419" fill="black"/><path id="Fill 28" fill-rule="evenodd" clip-rule="evenodd" d="M355.241 363.214C355.241 370.464 349.364 376.342 342.113 376.342C334.863 376.342 328.985 370.464 328.985 363.214C328.985 355.964 334.863 350.086 342.113 350.086C349.364 350.086 355.241 355.964 355.241 363.214" fill="black"/><path id="Stroke 30" d="M221.949 283.519C222.516 282.636 223.66 282.348 224.571 282.833L224.712 282.916L285.766 322.072C286.587 322.598 286.902 323.632 286.535 324.519L286.468 324.665L247.312 401.329C246.809 402.313 245.605 402.703 244.621 402.2C243.684 401.722 243.286 400.606 243.684 399.651L243.75 399.509L282.08 324.46L222.553 286.283C221.67 285.716 221.382 284.571 221.866 283.661L221.949 283.519Z" fill="black"/><path id="Stroke 32" d="M346.304 269.8C347.152 269.092 348.413 269.207 349.121 270.056C349.792 270.862 349.723 272.04 348.986 272.762L348.865 272.872L287.995 323.601L343.245 361.566C344.11 362.16 344.361 363.313 343.848 364.208L343.761 364.347C343.166 365.211 342.013 365.463 341.119 364.95L340.98 364.862L283.555 325.403C282.508 324.684 282.397 323.198 283.285 322.328L283.407 322.219L346.304 269.8Z" fill="black"/><g id="Group"><path id="Stroke 34" fill-rule="evenodd" clip-rule="evenodd" d="M636.398 526.458C650.967 501.212 677.905 485.33 707.616 485.33C737.336 485.33 764.26 501.204 778.85 526.457C779.118 526.921 779.118 527.494 778.85 527.958C764.261 553.194 737.321 569.068 707.616 569.068C677.915 569.068 650.991 553.197 636.399 527.958C636.13 527.494 636.13 526.922 636.398 526.458ZM775.395 526.509C761.3 503.257 736.199 488.631 708.474 488.335L707.616 488.33C679.56 488.33 654.074 503.025 639.853 526.508L639.435 527.206L639.854 527.905C653.95 551.143 679.051 565.768 706.758 566.064L707.616 566.068C735.667 566.068 761.155 551.379 775.395 527.905L775.813 527.206L775.395 526.509Z" fill="black"/><path id="Combined Shape" fill-rule="evenodd" clip-rule="evenodd" d="M707.625 551.57C721.084 551.57 731.995 540.659 731.995 527.2C731.995 513.741 721.084 502.83 707.625 502.83C694.166 502.83 683.255 513.741 683.255 527.2C683.255 540.659 694.166 551.57 707.625 551.57ZM719.562 528.528C723.212 528.528 726.171 525.569 726.171 521.919C726.171 518.269 723.212 515.31 719.562 515.31C715.911 515.31 712.952 518.269 712.952 521.919C712.952 525.569 715.911 528.528 719.562 528.528Z" fill="black"/><path id="Stroke 38" d="M827.851 525.699C828.679 525.699 829.351 526.371 829.351 527.199C829.351 527.979 828.756 528.62 827.995 528.693L827.851 528.699H810.349C809.52 528.699 808.849 528.028 808.849 527.199C808.849 526.42 809.444 525.779 810.204 525.706L810.349 525.699H827.851Z" fill="black"/><path id="Stroke 40" d="M803.245 486.08C803.659 485.363 804.577 485.117 805.294 485.531C805.969 485.921 806.227 486.757 805.91 487.452L805.843 487.58L797.092 502.737C796.678 503.455 795.761 503.701 795.043 503.286C794.368 502.897 794.111 502.061 794.428 501.366L794.494 501.237L803.245 486.08Z" fill="black"/><path id="Stroke 42" d="M795.043 551.113C795.718 550.723 796.571 550.918 797.014 551.54L797.092 551.662L805.843 566.819C806.257 567.536 806.012 568.453 805.294 568.868C804.619 569.258 803.767 569.063 803.323 568.44L803.245 568.319L794.494 553.162C794.08 552.444 794.326 551.527 795.043 551.113Z" fill="black"/></g><path id="Stroke 44" d="M686.1 190.984C698.894 190.984 709.289 201.251 709.496 213.995L709.499 214.382V344.951C709.499 345.779 708.827 346.451 707.999 346.451C707.219 346.451 706.578 345.856 706.506 345.095L706.499 344.951V214.382C706.499 203.232 697.553 194.172 686.447 193.987L686.1 193.984H428.39C417.241 193.984 408.18 202.929 407.995 214.034L407.992 214.382V297.218C407.992 298.046 407.32 298.718 406.492 298.718C405.712 298.718 405.071 298.123 404.999 297.362L404.992 297.218V214.382C404.992 201.589 415.259 191.194 428.003 190.987L428.39 190.984H686.1Z" fill="black"/><path id="Stroke 46" d="M576.635 220.984C577.463 220.984 578.135 221.655 578.135 222.484C578.135 223.264 577.54 223.904 576.779 223.977L576.635 223.984H537.856C537.027 223.984 536.356 223.312 536.356 222.484C536.356 221.704 536.951 221.063 537.711 220.991L537.856 220.984H576.635Z" fill="black"/><path id="Stroke 48" d="M707.998 591.192C708.778 591.192 709.419 591.787 709.492 592.547L709.498 592.692V772.638C709.498 785.431 699.231 795.826 686.487 796.033L686.1 796.036H428.39C415.597 796.036 405.201 785.768 404.995 773.025L404.991 772.638V673.812C404.991 672.983 405.663 672.312 406.491 672.312C407.271 672.312 407.912 672.907 407.985 673.667L407.991 673.812V772.638C407.991 783.787 416.937 792.847 428.043 793.033L428.39 793.036H686.1C697.25 793.036 706.31 784.091 706.496 772.985L706.498 772.638V592.692C706.498 591.863 707.17 591.192 707.998 591.192Z" fill="black"/><path id="Stroke 50" d="M576.635 763.039C577.463 763.039 578.135 763.711 578.135 764.539C578.135 765.319 577.54 765.96 576.779 766.032L576.635 766.039H537.856C537.027 766.039 536.356 765.367 536.356 764.539C536.356 763.759 536.951 763.119 537.711 763.046L537.856 763.039H576.635Z" fill="black"/><path id="Stroke 52" d="M707.625 423.815C708.404 423.815 709.045 424.41 709.118 425.17L709.125 425.315V467.127C709.125 467.955 708.453 468.627 707.625 468.627C706.845 468.627 706.204 468.032 706.131 467.271L706.125 467.127V425.315C706.125 424.486 706.796 423.815 707.625 423.815Z" fill="black"/><path id="Fill 65" fill-rule="evenodd" clip-rule="evenodd" d="M784.87 720.737C795.524 730.363 796.359 746.803 786.733 757.459C777.107 768.114 760.667 768.949 750.012 759.323C739.356 749.697 738.521 733.256 748.147 722.6C757.773 711.945 774.215 711.111 784.87 720.737" fill="black"/><path id="Fill 66" fill-rule="evenodd" clip-rule="evenodd" d="M782.477 660.317C787.857 665.177 788.278 673.478 783.417 678.859C778.557 684.239 770.256 684.66 764.875 679.799C759.496 674.939 759.075 666.637 763.935 661.257C768.795 655.878 777.096 655.457 782.477 660.317" fill="black"/><path id="Fill 67" fill-rule="evenodd" clip-rule="evenodd" d="M844.017 714.127C849.397 718.987 849.819 727.289 844.958 732.669C840.098 738.049 831.796 738.471 826.416 733.61C821.036 728.75 820.615 720.448 825.475 715.068C830.335 709.689 838.637 709.267 844.017 714.127" fill="black"/><path id="Stroke 68" d="M773.705 668.058L773.854 668.066C774.904 668.159 775.692 669.049 775.676 670.086L775.668 670.235L769.68 737.44L834.752 721.924C835.778 721.68 836.807 722.273 837.122 723.262L837.162 723.406C837.406 724.431 836.813 725.461 835.824 725.775L835.68 725.815L767.905 741.975C766.624 742.281 765.417 741.288 765.441 739.997L765.449 739.852L771.684 669.88C771.778 668.83 772.667 668.042 773.705 668.058Z" fill="black"/><path id="Fill 69" fill-rule="evenodd" clip-rule="evenodd" d="M399.952 394.468C391.367 402.465 392.174 416.79 400.707 424.527C413.073 435.739 436.154 427.496 439.168 411.135C439.264 410.607 439.338 410.074 439.387 409.539C440.192 400.634 434.416 392.326 435.709 383.465C436.12 380.646 437.919 378.256 439.61 375.963C443.391 370.84 448.662 363.639 447.431 356.878C446.763 353.199 444.144 350.198 441.398 347.661C437.807 344.343 428.945 337.532 434.445 331.975C435.279 331.133 436.446 330.524 437.597 330.259C438.548 330.04 439.594 330.104 440.431 330.603C443.182 332.243 443.888 335.536 447.672 335.646C449.607 335.702 451.546 334.777 452.72 333.237C454.514 330.884 454.376 327.58 453.639 324.714C453.23 323.124 452.66 321.472 453.062 319.88C453.691 317.396 456.521 316.039 459.083 316.078C461.645 316.118 464.06 317.182 466.51 317.935C473.322 320.03 481.073 319.643 487.167 315.946C490.389 313.992 493.223 310.827 493.4 307.064C493.551 303.856 491.749 300.86 489.56 298.511C483.913 292.451 475.59 289.497 467.361 288.545C459.263 287.609 450.905 288.436 443.323 291.431C435.742 294.427 428.974 299.646 424.57 306.506C420.858 312.286 418.965 319.076 418.599 325.905C418.227 332.87 419.891 339.425 421.086 346.206C422.056 351.718 419.874 357.939 415.96 361.853C412.985 364.827 409.419 367.149 406.365 370.043C403.162 373.078 400.558 376.99 400.316 381.515C400.146 384.697 401.599 386.41 402.644 389.165C403.491 391.397 401.565 392.992 400.095 394.336C400.047 394.38 399.999 394.424 399.952 394.468" fill="black"/><path id="Stroke 70" d="M487.82 313.837C488.628 313.657 489.43 314.167 489.609 314.976C491.357 322.845 491.84 330.142 491.46 336.993C490.797 349.551 488.713 358.588 482.188 368.082C480.15 371.044 478.119 373.285 476.134 374.922C474.764 376.052 473.687 376.704 472.556 377.234C468.511 379.096 464.125 379.426 459.627 378.607C456.657 378.067 454.19 377.171 451.901 376.074C451.154 375.716 450.838 374.82 451.196 374.073C451.554 373.326 452.45 373.011 453.197 373.369C455.266 374.36 457.499 375.171 460.164 375.656C464.098 376.372 467.871 376.088 471.293 374.513C472.201 374.088 473.067 373.563 474.225 372.608C475.991 371.152 477.834 369.118 479.716 366.383C485.852 357.454 487.828 348.888 488.464 336.831C488.83 330.236 488.365 323.211 486.681 315.627C486.501 314.818 487.011 314.017 487.82 313.837Z" fill="black"/><path id="Stroke 71" d="M462.984 376.02C463.803 375.893 464.57 376.454 464.697 377.273C465.734 383.963 464.832 390.626 461.027 396.533C460.039 398.07 458.983 399.449 457.434 400.981C455.141 403.25 452.403 405.124 449.162 406.422C445.925 407.708 442.636 408.248 439.403 408.181C438.574 408.164 437.917 407.479 437.934 406.651C437.951 405.823 438.636 405.165 439.464 405.182C442.313 405.24 445.205 404.766 448.051 403.635C450.895 402.496 453.303 400.848 455.324 398.849C456.693 397.494 457.624 396.279 458.504 394.909C461.862 389.697 462.666 383.757 461.732 377.732C461.605 376.914 462.166 376.147 462.984 376.02Z" fill="black"/><path id="Stroke 72" d="M400.908 385.161C401.672 384.843 402.55 385.206 402.868 385.97C403.186 386.735 402.824 387.613 402.059 387.931C397.873 389.672 393.691 391.56 389.543 393.597C386.082 395.296 382.707 397.076 379.423 398.924C375.887 400.911 373.805 404.071 373.195 407.9C372.579 411.8 372.194 415.769 372.014 419.911L371.952 421.462C371.694 428.785 371.962 434.532 373.095 447.921L374.04 458.792C375.572 476.839 378.381 494.332 382.296 511.245C382.483 512.052 381.98 512.858 381.173 513.045C380.366 513.231 379.56 512.729 379.373 511.922C375.568 495.481 372.799 478.497 371.221 460.994L370.102 448.131C368.881 433.701 368.656 428.052 369.017 419.78C369.202 415.528 369.598 411.447 370.232 407.43C370.982 402.721 373.593 398.76 377.953 396.309C381.284 394.435 384.708 392.628 388.22 390.904C392.426 388.839 396.664 386.925 400.908 385.161Z" fill="black"/><path id="Stroke 73" d="M461.927 377.932C462.198 377.149 463.052 376.734 463.835 377.004L465.49 377.569C466.157 377.793 466.849 378.021 467.637 378.278L473.951 380.33C475.997 381.007 477.48 381.522 479.513 382.257L481.408 382.947C489.195 385.805 491.612 387.007 495.266 389.801C501.864 394.859 504.972 400.634 508.216 410.595C512.26 422.961 516.298 436.25 520.214 449.854L521.702 455.062C523.528 461.49 525.117 467.243 526.493 472.341L527.596 476.458L529.064 478.354C531.826 481.898 534.65 485.415 537.544 488.908L539.288 491C543.748 496.329 548.333 501.552 553.083 506.738C553.643 507.349 553.601 508.297 552.99 508.857C552.38 509.417 551.431 509.375 550.871 508.764C546.091 503.547 541.477 498.289 536.989 492.927C532.872 488.019 528.894 483.065 525.036 478.053C524.915 477.895 524.827 477.715 524.775 477.523L524.002 474.629C522.339 468.435 520.347 461.22 517.981 452.95C514.088 439.344 510.067 426.02 506.036 413.589L505.364 411.525C502.293 402.097 499.427 396.771 493.442 392.183L492.87 391.752C489.806 389.479 487.436 388.353 480.33 385.747L477.287 384.645C475.269 383.926 473.629 383.374 470.872 382.479L466.311 381.001C465.036 380.583 463.994 380.234 462.855 379.84C462.072 379.569 461.657 378.715 461.927 377.932Z" fill="black"/><path id="Stroke 74" d="M365.941 509.287C370.369 508.305 375.198 508.599 380.605 509.974C384.501 510.964 388.327 512.373 393.469 514.599L396.26 515.828L400.535 517.739C401.471 518.153 402.255 518.495 403 518.811L403.278 518.929C425.225 528.19 446.5 536.203 467.472 543.027C468.26 543.284 468.691 544.13 468.435 544.918C468.178 545.706 467.332 546.137 466.544 545.88C446.24 539.273 425.659 531.559 404.468 522.684L401.541 521.451C401.059 521.245 400.558 521.027 400.008 520.786L394.089 518.146L392.298 517.361C387.282 515.189 383.581 513.826 379.866 512.881C374.879 511.614 370.507 511.347 366.591 512.216C360.802 513.501 356.338 517.559 355.002 522.973C352.643 532.518 357.744 542.2 368.408 553.153C373.532 558.416 379.857 563.648 388.316 569.857L390.086 571.148C391.093 571.879 392.14 572.631 393.27 573.437L400.827 578.784C401.504 579.262 401.664 580.198 401.186 580.874C400.736 581.511 399.881 581.691 399.218 581.312L399.109 581.243C398.859 581.067 394.557 578.031 393.298 577.139L391.526 575.878C390.2 574.932 388.989 574.061 387.82 573.21L387.322 572.847C378.349 566.297 371.678 560.812 366.259 555.246C354.93 543.61 349.404 533.121 352.089 522.253C353.709 515.69 359.078 510.811 365.941 509.287Z" fill="black"/><path id="Fill 75" fill-rule="evenodd" clip-rule="evenodd" d="M372.79 604.32C366.28 599.441 364.772 588.948 370.703 582.981C373.959 579.705 379.485 578.888 383.901 578.674C389.37 578.41 395.098 580.129 400.566 579.8C406.149 579.465 411.249 576.943 416.82 576.54C419.686 576.333 422.682 576.529 425.226 577.867C427.29 578.954 428.919 580.721 430.286 582.614C431.087 583.723 432.963 586.514 431.707 587.84C431.209 588.365 430.366 589.358 429.652 589.24C426.169 588.664 422.743 588.018 419.123 587.286C415.684 586.591 412.209 586.059 408.688 585.827C404.07 585.523 398.053 585.701 395.423 590.171C392.547 595.062 395.572 600.591 400.023 603.216" fill="black"/><path id="Stroke 76" d="M406.423 452.29C407.251 452.253 407.952 452.893 407.99 453.721L409.633 489.864L470.267 521.012C470.828 521.3 471.144 521.905 471.071 522.521L471.048 522.663L468.475 534.55C468.317 535.28 467.649 535.776 466.917 535.73L466.779 535.715L417.937 528.158C417.118 528.032 416.557 527.265 416.684 526.446C416.803 525.676 417.489 525.134 418.252 525.178L418.396 525.193L465.841 532.534L467.871 523.154L407.489 492.136C407.011 491.89 406.7 491.407 406.676 490.87L404.993 453.857C404.955 453.03 405.596 452.328 406.423 452.29Z" fill="black"/><path id="Stroke 77" d="M468.106 522.078C468.245 521.311 468.944 520.787 469.706 520.851L469.849 520.87L487.29 524.033C487.453 524.063 487.61 524.119 487.755 524.2L487.894 524.288L503.454 535.402C504.128 535.884 504.285 536.821 503.803 537.495C503.35 538.129 502.493 538.305 501.832 537.922L501.711 537.844L486.423 526.924L469.314 523.822C468.547 523.683 468.022 522.983 468.086 522.222L468.106 522.078Z" fill="black"/><path id="Stroke 78" d="M465.542 533.915C465.707 533.153 466.424 532.653 467.183 532.743L467.325 532.766L485.072 536.604C485.355 536.666 485.614 536.807 485.817 537.011L485.914 537.118L494.812 547.935C495.338 548.574 495.246 549.52 494.606 550.046C494.006 550.539 493.138 550.489 492.598 549.954L492.495 549.84L483.927 539.426L466.691 535.699C465.929 535.534 465.428 534.817 465.518 534.058L465.542 533.915Z" fill="black"/><path id="Stroke 79" d="M606.205 492.561C607.461 492.23 608.493 493.533 607.939 494.663L607.876 494.779L586.583 530.504C586.159 531.216 585.238 531.449 584.526 531.025C583.856 530.625 583.611 529.786 583.938 529.096L584.006 528.968L603.419 496.396L523.735 517.389L492.601 565.949C492.279 566.451 491.694 566.71 491.113 566.622L490.968 566.593L442.164 554.18C440.756 553.821 440.647 551.898 441.933 551.351L442.071 551.299L484.501 537.532C485.289 537.277 486.135 537.708 486.391 538.496C486.632 539.238 486.264 540.031 485.562 540.335L485.427 540.386L447.932 552.551L490.659 563.418L521.524 515.278C521.698 515.007 521.954 514.8 522.253 514.687L522.405 514.638L606.205 492.561Z" fill="black"/><path id="Stroke 80" d="M571.958 544.583C572.763 544.387 573.574 544.881 573.77 545.686C573.955 546.443 573.528 547.206 572.807 547.457L572.668 547.498L493.036 566.899L432.556 587.562C431.818 587.814 431.019 587.458 430.704 586.762L430.651 586.628C430.399 585.89 430.755 585.091 431.451 584.776L431.586 584.723L492.121 564.041L492.251 564.003L571.958 544.583Z" fill="black"/><path id="Stroke 81" d="M490.74 447.861C490.74 446.096 493.218 445.807 493.677 447.427L493.712 447.575L502.36 492.122L530.09 513.21C530.711 513.682 530.861 514.543 530.458 515.193L530.376 515.312C529.905 515.932 529.043 516.082 528.394 515.68L528.275 515.598L500.089 494.164C499.837 493.973 499.654 493.708 499.562 493.408L499.524 493.256L493.739 463.46V492.74L504.014 525.658C504.247 526.402 503.87 527.191 503.165 527.487L503.029 527.537C502.285 527.769 501.496 527.392 501.2 526.688L501.151 526.552L490.808 493.417C490.778 493.32 490.757 493.221 490.747 493.121L490.74 492.97V447.861Z" fill="black"/><path id="Stroke 82" d="M550.398 549.867L550.542 549.869L551.721 549.945C564.73 550.86 572.655 553.959 579.109 562.114C581.861 565.587 583.782 569.061 584.671 573.85C585.879 580.352 584.297 586.71 580.774 592.687C579.513 594.827 578.072 596.791 576.547 598.557C575.544 599.72 574.67 600.611 573.967 601.261C573.359 601.824 572.41 601.787 571.847 601.179C571.285 600.571 571.322 599.622 571.93 599.059L572.288 598.72C572.849 598.177 573.52 597.473 574.276 596.597C575.69 594.96 577.025 593.139 578.19 591.163C581.374 585.762 582.781 580.104 581.722 574.398C580.94 570.188 579.233 567.101 576.757 563.976C570.745 556.379 563.309 553.629 550.365 552.864C549.538 552.815 548.907 552.105 548.956 551.278C549.002 550.499 549.634 549.895 550.398 549.867Z" fill="black"/><path id="Stroke 83" fill-rule="evenodd" clip-rule="evenodd" d="M568.069 538.94C568.069 532.26 573.484 526.846 580.163 526.846C586.842 526.846 592.256 532.26 592.256 538.94C592.256 545.619 586.843 551.033 580.163 551.033C573.484 551.033 568.069 545.619 568.069 538.94ZM589.256 538.94C589.256 533.917 585.186 529.846 580.163 529.846C575.141 529.846 571.069 533.917 571.069 538.94C571.069 543.962 575.14 548.033 580.163 548.033C585.186 548.033 589.256 543.962 589.256 538.94Z" fill="black"/><path id="Stroke 84" d="M442.535 551.226C443.314 551.226 443.955 551.82 444.028 552.581L444.035 552.726L444.034 558.914L481.976 567.748C482.735 567.924 483.224 568.649 483.123 569.406L483.096 569.549C482.92 570.308 482.195 570.797 481.438 570.696L481.295 570.67L442.194 561.567C441.56 561.419 441.1 560.882 441.041 560.244L441.035 560.106V552.726C441.035 551.897 441.706 551.226 442.535 551.226Z" fill="black"/><path id="Stroke 85" d="M573.13 547.186C573.507 546.448 574.411 546.156 575.148 546.532C575.843 546.887 576.143 547.708 575.862 548.419L575.802 548.551L573.429 553.197C573.259 553.528 572.973 553.784 572.629 553.915L572.478 553.964L566.27 555.61C565.469 555.822 564.648 555.345 564.435 554.545C564.235 553.791 564.646 553.019 565.363 552.754L565.501 552.71L571.061 551.236L573.13 547.186Z" fill="black"/><path id="Fill 86" fill-rule="evenodd" clip-rule="evenodd" d="M463.694 377.779C462.113 377.828 459.905 377.753 457.373 377.194C454.588 376.579 452.457 375.611 451.052 374.848C451.318 377.109 451.993 380.303 453.795 383.837C455.984 388.133 458.913 391.116 460.957 392.892C461.891 391.328 462.966 389.116 463.582 386.349C464.375 382.779 464.077 379.756 463.694 377.779" fill="black"/></g></g><g id="Element" transform="translate(132 393) scale(1 1)"><g id="Element/Vase"><g id="Group"><path id="Stroke 56" fill-rule="evenodd" clip-rule="evenodd" d="M100.406 224.454H169.992C170.82 224.454 171.492 225.126 171.492 225.954V241.847C171.492 242.676 170.82 243.347 169.992 243.347H100.406C99.5773 243.347 98.9057 242.676 98.9057 241.847V225.954C98.9057 225.126 99.5773 224.454 100.406 224.454ZM168.491 240.347V227.454H101.905V240.347H168.491Z" fill="black"/><path id="Stroke 58" d="M165.038 240.354C165.816 240.301 166.495 240.851 166.62 241.605L166.636 241.748L171.705 316.278L172.886 333.538L177.585 402.568C177.641 403.389 177.027 404.092 176.224 404.164L176.089 404.17H94.3097C93.4869 404.17 92.827 403.51 92.8099 402.704L92.8131 402.568L97.5122 333.538L98.6931 316.278L103.762 241.748C103.818 240.922 104.534 240.297 105.36 240.354C106.138 240.407 106.737 241.044 106.758 241.807L106.755 241.952L101.686 316.483L100.505 333.742L95.915 401.17H174.483L169.893 333.743L168.712 316.482L163.643 241.952C163.587 241.125 164.211 240.41 165.038 240.354Z" fill="black"/><path id="Stroke 59" d="M85.1684 160.922L85.5314 161.165L86.1997 161.622C86.5194 161.844 86.8222 162.059 87.1291 162.283C88.7388 163.458 90.2544 164.734 91.8642 166.318L92.7342 167.183C98.4101 172.888 101.614 177.407 103.311 183.988C104.37 188.098 104.299 190.803 103.426 195.504L103.155 196.933C102.475 200.568 102.423 202.75 103.228 205.692C104.753 211.263 108.811 215.953 114.979 219.952C115.674 220.403 115.872 221.332 115.422 222.027C114.971 222.722 114.042 222.92 113.347 222.469C106.615 218.104 102.081 212.865 100.334 206.484C99.4271 203.169 99.4464 200.641 100.115 196.879L100.383 195.451C101.27 190.827 101.369 188.473 100.406 184.737C98.7988 178.505 95.6178 174.221 89.7599 168.457C88.2578 166.978 86.8546 165.796 85.3606 164.706C84.977 164.426 84.5981 164.159 84.1753 163.871L81.7699 162.261C79.5393 160.741 78.1463 159.48 76.7276 157.495C76.4608 157.122 76.1984 156.728 75.9387 156.31C72.0577 150.058 70.4582 142.553 73.8261 138.646C76.0677 136.046 79.8795 135.457 84.6614 136.182C86.2914 136.43 87.9449 136.821 89.557 137.305C90.6027 137.619 91.4714 137.922 92.0779 138.158C107.833 144.261 120.25 163.819 119.304 181.855C119.17 184.394 118.844 186.402 118.191 189.231L117.591 191.77C117.529 192.04 117.474 192.285 117.423 192.523C116.691 195.918 116.608 198.453 117.341 201.849C118.788 208.547 122.614 214.147 128.098 219.09C128.714 219.645 128.763 220.593 128.208 221.209C127.654 221.824 126.705 221.873 126.09 221.319C120.178 215.991 116.008 209.886 114.409 202.482C113.617 198.815 113.667 195.96 114.378 192.426L114.545 191.637L115.136 189.116C115.843 186.135 116.177 184.192 116.308 181.698C117.187 164.946 105.531 146.586 90.9931 140.955L90.5972 140.806C90.0932 140.622 89.4453 140.404 88.6947 140.179C87.2087 139.733 85.6888 139.373 84.2113 139.148C80.354 138.563 77.4749 139.008 76.0982 140.605C73.8889 143.168 75.2364 149.49 78.4875 154.727C78.7133 155.091 78.9397 155.431 79.1682 155.751C80.2807 157.307 81.3538 158.313 83.1003 159.534L83.9236 160.094C84.4776 160.464 85.243 160.971 85.1684 160.922Z" fill="black"/><path id="Stroke 60" d="M118.578 57.0148C122.664 50.1081 133.077 48.4712 140.075 53.1355C146.327 57.303 149.663 65.3972 149.17 73.7382C148.783 80.2902 146.444 86.6347 142.121 94.3356L140.396 97.3496C135.502 105.884 133.851 110.503 134.811 115.741C135.227 118.006 135.995 119.783 137.981 123.48L138.789 124.981C139.04 125.452 139.238 125.828 139.438 126.219C143.704 134.572 145.794 144.021 145.45 153.395C145.232 159.316 144.378 164.006 142.03 173.637L140.679 179.149C140.326 180.617 140.063 181.754 139.792 182.983C137.198 194.755 137.869 205.585 141.482 219.901C141.685 220.704 141.198 221.519 140.395 221.722C139.592 221.925 138.776 221.438 138.573 220.635C134.924 206.175 134.183 195.038 136.715 183.019L136.862 182.338C137.157 181 137.442 179.774 137.838 178.134L139.379 171.84C141.479 163.136 142.252 158.721 142.452 153.285C142.769 144.655 140.902 135.951 137.08 128.21L136.766 127.584C136.639 127.335 136.511 127.09 136.368 126.819L134.905 124.088C133.085 120.645 132.316 118.764 131.86 116.282C130.769 110.329 132.426 105.366 137.236 96.838L139.15 93.4948C143.498 85.8663 145.81 79.743 146.175 73.5612C146.61 66.2151 143.7 59.1579 138.411 55.6318C132.773 51.8735 124.319 53.2023 121.16 58.5422C119.628 61.1326 119.218 64.5265 119.81 68.2777L119.88 68.696C120.229 70.6752 120.684 72.2825 121.757 75.5296L122.673 78.2993C122.82 78.7517 122.94 79.1349 123.07 79.5596C125.652 87.994 126.325 96.3345 124.73 103.938L124.61 104.485C124.034 107.005 123.197 109.132 121.37 113.085L120.384 115.21C118.155 120.062 117.293 122.62 117.062 125.727C116.734 130.137 117.939 133.725 121.541 140.671L123.246 143.932C123.929 145.25 124.301 146.01 124.766 147.022C125.066 147.674 125.337 148.297 125.582 148.906C129.599 158.864 131.678 167.052 131.861 175.421C132.009 182.268 131.077 188.993 129.058 195.172C128.8 195.959 127.953 196.389 127.166 196.131C126.378 195.874 125.949 195.027 126.206 194.24C128.117 188.392 129.003 182.004 128.861 175.486C128.688 167.536 126.692 159.679 122.8 150.028C122.63 149.606 122.446 149.175 122.246 148.728L122.041 148.276C121.573 147.258 121.199 146.498 120.46 145.076L118.864 142.027C115.1 134.764 113.746 130.81 114.048 125.831L114.07 125.505C114.342 121.838 115.334 118.975 117.859 113.522L118.817 111.457C120.555 107.675 121.289 105.728 121.794 103.322C123.235 96.4562 122.679 88.8643 120.407 81.1215L120.102 80.1161C120.02 79.8513 119.937 79.5905 119.844 79.3017L118.655 75.7002C117.714 72.8136 117.277 71.21 116.926 69.2173C116.12 64.6524 116.579 60.3952 118.578 57.0148Z" fill="black"/><path id="Stroke 61" d="M185.488 110.119C191.001 106.457 198.549 106.464 203.036 110.645C208.17 115.43 208.547 124.329 205.461 132.287C201.892 141.492 196.586 150.395 189.717 159.072L188.66 160.391C186.479 163.085 184.487 165.381 180.716 169.596L176.943 173.81C173.683 177.467 171.817 179.636 169.803 182.138L167.158 185.458L166.888 185.802C161.978 192.07 159.093 196.679 157.383 201.671C155.237 207.937 155.394 214.101 158.29 220.6C158.628 221.357 158.288 222.243 157.531 222.581C156.774 222.918 155.888 222.578 155.55 221.821C152.337 214.61 152.159 207.663 154.545 200.698C156.277 195.64 159.062 191.054 163.622 185.118L164.887 183.493L167.466 180.256C169.644 177.551 171.64 175.242 175.325 171.118L179.723 166.203C182.878 162.66 184.666 160.573 186.71 158.031C193.722 149.316 199.099 140.397 202.664 131.202C205.355 124.262 205.031 116.605 200.991 112.84C197.6 109.681 191.578 109.675 187.148 112.618C183.228 115.222 180.378 119.664 178.389 125.592C177.048 129.589 176.253 133.246 175.189 139.793L174.338 145.144C172.76 154.875 171.592 159.576 169.06 165.041L168.777 165.643C166.88 169.613 164.758 172.791 160.287 178.755L158.428 181.228C156.595 183.673 155.579 185.078 154.485 186.7L154.342 186.913C147.248 197.493 145.171 207.65 150.245 215.569C150.692 216.267 150.489 217.195 149.792 217.641C149.094 218.088 148.166 217.885 147.719 217.188C141.921 208.138 144.109 196.981 151.572 185.661L152.144 184.806C153.167 183.297 154.148 181.94 155.781 179.758L157.874 176.972C162.451 170.867 164.478 167.797 166.338 163.78L166.613 163.177C168.948 157.966 170.036 153.183 171.66 142.894L172.144 139.831C173.246 132.984 174.059 129.142 175.433 124.976L175.545 124.638C177.726 118.134 180.925 113.15 185.488 110.119Z" fill="black"/><path id="Stroke 62" fill-rule="evenodd" clip-rule="evenodd" d="M90.9414 89.3254C84.2869 78.2927 65.7549 75.1227 47.4476 82.3735C46.6774 82.6786 46.3003 83.5502 46.6054 84.3205C46.9104 85.0907 47.7821 85.4678 48.5523 85.1627C65.6376 78.3958 82.5953 81.2965 88.3725 90.8748L88.559 91.1926C90.9399 95.3644 91.6389 101.094 90.3085 106.053L90.285 106.135L89.9593 105.882C88.6084 104.857 87.1419 104.013 85.5533 103.372C85.1505 103.21 84.8658 103.097 84.5956 102.995L84.1022 102.814C81.7605 101.982 79.6159 101.619 77.4846 101.95C76.3153 102.132 75.2146 102.527 74.2022 103.156C70.788 105.277 68.7401 109.628 69.8894 113.519C71.0595 117.479 75.1689 119.811 79.2841 119.926C82.7385 120.023 85.763 118.342 88.3532 115.541C89.082 114.753 89.7356 113.916 90.3216 113.057L90.5077 112.781C90.8027 112.336 91.0293 111.962 91.2892 111.512L91.355 111.392L91.4896 111.554C92.6231 112.955 93.6393 114.552 94.5436 116.32C96.21 119.579 97.2095 122.741 97.8545 125.74C98.0286 126.55 98.8263 127.066 99.6363 126.892C100.446 126.717 100.962 125.92 100.787 125.11C100.092 121.877 99.0201 118.485 97.2146 114.955L96.9732 114.491C95.7532 112.188 94.3426 110.139 92.719 108.391L92.8145 108.122C94.9084 101.951 94.1059 94.5723 90.9414 89.3254ZM83.0975 105.641L83.2488 105.695C83.3969 105.749 83.5377 105.801 83.692 105.861L84.4312 106.154L84.8188 106.317C86.3585 106.987 87.7719 107.898 89.0644 109.024L89.166 109.115L89.059 109.334C88.9417 109.564 88.819 109.79 88.6906 110.013C88.4132 110.493 88.1849 110.866 87.8434 111.367C87.3362 112.11 86.7722 112.832 86.1505 113.504C84.0927 115.73 81.8146 116.996 79.3682 116.927C76.4227 116.844 73.5123 115.194 72.7665 112.669C72.0287 110.172 73.4478 107.157 75.7856 105.704C76.4458 105.294 77.1644 105.036 77.9457 104.915C79.4919 104.674 81.1831 104.96 83.0975 105.641Z" fill="black"/><path id="Stroke 63" d="M191.634 79.705C192.439 79.5092 193.25 80.003 193.446 80.8079C193.642 81.6129 193.148 82.4242 192.343 82.62C190.946 82.9597 189.468 83.3899 187.652 84.0466C184.981 85.0124 182.264 86.2434 179.579 87.7801C172.321 91.9337 166.318 97.7019 162.279 105.373C158.078 113.353 156.901 121.337 157.432 129.025C157.489 129.851 156.865 130.568 156.039 130.625C155.213 130.682 154.496 130.058 154.439 129.232C153.872 121.034 155.128 112.515 159.624 103.976C163.949 95.7612 170.365 89.5967 178.089 85.1763C180.931 83.5494 183.805 82.2476 186.632 81.2254C188.56 80.528 190.139 80.0685 191.634 79.705Z" fill="black"/><path id="Fill 64" fill-rule="evenodd" clip-rule="evenodd" d="M171.389 333.64H99.0087L100.19 313.802H170.209L171.389 333.64Z" fill="black"/><path id="Fill 87" fill-rule="evenodd" clip-rule="evenodd" d="M121.845 299.626C121.845 302.658 119.387 305.115 116.356 305.115C113.324 305.115 110.866 302.658 110.866 299.626C110.866 296.595 113.324 294.137 116.356 294.137C119.387 294.137 121.845 296.595 121.845 299.626" fill="black"/><path id="Fill 88" fill-rule="evenodd" clip-rule="evenodd" d="M140.688 299.626C140.688 302.658 138.23 305.115 135.199 305.115C132.167 305.115 129.709 302.658 129.709 299.626C129.709 296.595 132.167 294.137 135.199 294.137C138.23 294.137 140.688 296.595 140.688 299.626" fill="black"/><path id="Fill 89" fill-rule="evenodd" clip-rule="evenodd" d="M159.532 299.626C159.532 302.658 157.074 305.115 154.043 305.115C151.011 305.115 148.553 302.658 148.553 299.626C148.553 296.595 151.011 294.137 154.043 294.137C157.074 294.137 159.532 296.595 159.532 299.626" fill="black"/><path id="Fill 90" fill-rule="evenodd" clip-rule="evenodd" d="M121.845 383.532C121.845 386.564 119.387 389.021 116.356 389.021C113.324 389.021 110.866 386.564 110.866 383.532C110.866 380.501 113.324 378.043 116.356 378.043C119.387 378.043 121.845 380.501 121.845 383.532" fill="black"/><path id="Fill 91" fill-rule="evenodd" clip-rule="evenodd" d="M140.688 383.532C140.688 386.564 138.23 389.021 135.199 389.021C132.167 389.021 129.709 386.564 129.709 383.532C129.709 380.501 132.167 378.043 135.199 378.043C138.23 378.043 140.688 380.501 140.688 383.532" fill="black"/><path id="Fill 92" fill-rule="evenodd" clip-rule="evenodd" d="M159.532 383.532C159.532 386.564 157.074 389.021 154.043 389.021C151.011 389.021 148.553 386.564 148.553 383.532C148.553 380.501 151.011 378.043 154.043 378.043C157.074 378.043 159.532 380.501 159.532 383.532" fill="black"/><path id="Stroke 93" d="M104.542 357.842C104.935 357.633 105.397 357.61 105.805 357.772L105.955 357.842L112.742 361.465L119.526 357.842C119.918 357.633 120.381 357.609 120.789 357.772L120.939 357.842L127.723 361.464L134.505 357.842C134.897 357.633 135.36 357.609 135.768 357.773L135.918 357.843L142.698 361.464L149.479 357.843C149.871 357.633 150.334 357.609 150.742 357.773L150.892 357.843L157.671 361.464L164.449 357.843C164.841 357.633 165.304 357.609 165.712 357.773L165.862 357.842L173.35 361.842C174.081 362.233 174.357 363.142 173.967 363.872C173.599 364.56 172.773 364.845 172.067 364.551L171.937 364.489L165.155 360.866L158.379 364.488C157.986 364.698 157.523 364.722 157.115 364.558L156.965 364.489L150.185 360.866L143.405 364.489C143.013 364.698 142.55 364.722 142.142 364.558L141.992 364.489L135.211 360.866L128.43 364.489C128.038 364.698 127.575 364.722 127.167 364.559L127.017 364.489L120.233 360.865L113.45 364.489C113.058 364.698 112.596 364.722 112.188 364.559L112.037 364.489L105.248 360.865L98.4609 364.489C97.773 364.856 96.9277 364.633 96.5054 363.996L96.4313 363.872C96.0641 363.184 96.2872 362.339 96.924 361.916L97.0482 361.842L104.542 357.842Z" fill="black"/><path id="Stroke 94" d="M109.246 268.925C109.692 268.641 110.251 268.616 110.718 268.848L110.855 268.925L116.346 272.413L121.833 268.925C122.279 268.641 122.839 268.615 123.306 268.848L123.443 268.925L128.923 272.413L134.409 268.925C134.855 268.641 135.415 268.615 135.882 268.848L136.019 268.925L141.5 272.413L146.985 268.925C147.431 268.641 147.991 268.615 148.458 268.848L148.595 268.925L154.076 272.413L159.556 268.925C160.003 268.641 160.563 268.615 161.03 268.848L161.167 268.926L167.449 272.926C168.148 273.371 168.354 274.298 167.909 274.997C167.49 275.654 166.644 275.875 165.963 275.528L165.838 275.456L160.36 271.969L154.882 275.456C154.435 275.741 153.876 275.767 153.409 275.534L153.271 275.456L147.789 271.968L142.306 275.457C141.859 275.741 141.3 275.766 140.833 275.534L140.695 275.456L135.213 271.968L129.729 275.457C129.282 275.741 128.723 275.766 128.255 275.534L128.118 275.456L122.637 271.968L117.151 275.457C116.705 275.741 116.146 275.766 115.679 275.534L115.542 275.457L110.05 271.967L104.559 275.457C103.901 275.875 103.041 275.717 102.572 275.114L102.488 274.995C102.07 274.337 102.229 273.477 102.832 273.008L102.95 272.925L109.246 268.925Z" fill="black"/></g></g></g></g></svg>